<?xml version="1.0" standalone="no"?>
<!DOCTYPE svg PUBLIC "-//W3C//DTD SVG 20010904//EN"
 "http://www.w3.org/TR/2001/REC-SVG-20010904/DTD/svg10.dtd">
<svg version="1.0" xmlns="http://www.w3.org/2000/svg"
 width="512.000000pt" height="512.000000pt" viewBox="0 0 512.000000 512.000000"
 preserveAspectRatio="xMidYMid meet">

<g transform="translate(0.000000,512.000000) scale(0.100000,-0.100000)"
fill="#000000" stroke="none">
<path d="M243 5111 c-12 -6 -30 -22 -40 -38 -17 -26 -18 -133 -21 -2478 -2
-1347 0 -2469 3 -2493 4 -23 17 -55 30 -70 l23 -27 530 -3 c329 -1 539 1 555
7 14 6 34 22 44 38 16 25 18 60 21 390 l3 363 152 0 153 0 18 -53 c37 -106
136 -294 199 -377 81 -106 229 -249 326 -315 l73 -50 570 -3 571 -2 63 41 c88
57 219 198 273 294 77 135 161 394 165 508 1 43 -3 52 -33 79 -29 26 -39 30
-75 25 -59 -8 -79 -37 -100 -142 -51 -255 -150 -444 -294 -562 l-53 -43 -511
0 -511 0 -56 42 c-150 113 -276 266 -357 433 -30 61 -54 113 -54 118 0 4 11 7
25 7 39 0 127 37 167 70 21 18 51 59 70 98 l33 67 0 231 c0 230 0 233 -23 257
-13 14 -84 50 -163 82 -76 32 -139 60 -138 64 0 3 70 40 155 81 85 41 164 84
175 96 24 25 26 56 15 181 l-8 93 116 0 116 0 0 -125 c0 -85 5 -136 14 -159
37 -88 145 -88 182 0 10 24 14 82 14 212 0 162 2 184 22 228 28 65 28 143 0
208 -22 48 -22 54 -22 696 0 641 0 648 21 674 24 30 69 56 98 56 34 0 87 -31
105 -60 15 -26 16 -117 16 -1029 0 -1078 -1 -1048 51 -1085 30 -21 78 -21 108
0 52 37 51 19 51 936 0 834 1 854 20 886 25 41 78 67 116 58 15 -4 45 -24 66
-45 l38 -39 0 -881 c0 -949 -1 -928 51 -965 30 -21 78 -21 108 0 51 36 51 37
51 700 0 544 2 619 16 642 26 44 65 67 112 67 37 0 48 -5 78 -37 l34 -38 0
-629 c0 -345 3 -642 6 -660 16 -80 104 -107 166 -52 l33 29 0 664 0 663 -23
58 c-28 69 -98 144 -165 176 -62 30 -157 38 -215 18 l-42 -15 0 97 c0 232 -53
342 -197 413 -70 34 -146 43 -225 24 l-38 -8 0 34 c0 47 -53 150 -98 189 -66
58 -136 84 -227 84 -90 -1 -143 -20 -213 -81 -48 -40 -102 -143 -102 -191 l0
-34 -37 8 c-78 16 -165 9 -227 -20 -69 -32 -66 -31 -66 -12 0 25 -67 192 -116
289 -307 609 -948 1021 -1634 1051 -64 3 -125 1 -137 -4z m382 -227 c364 -73
737 -289 976 -567 222 -258 351 -544 394 -871 l14 -111 246 -468 c135 -257
245 -478 245 -492 0 -49 -27 -55 -235 -55 -156 0 -195 -3 -213 -16 -21 -15
-22 -21 -22 -175 l0 -159 -232 -113 c-128 -63 -241 -123 -252 -135 -27 -31
-25 -96 3 -126 13 -14 113 -61 237 -112 l214 -89 0 -168 0 -169 -29 -29 -29
-29 -344 0 c-301 0 -346 -2 -367 -16 -48 -34 -51 -58 -51 -434 l0 -350 -395 0
-395 0 0 2358 0 2358 78 -8 c42 -4 113 -15 157 -24z m1762 -1284 c64 -39 64
-36 61 -365 l-3 -298 -117 225 -118 226 0 74 c0 82 12 107 64 139 40 24 73 24
113 -1z"/>
<path d="M1190 3302 c-77 -38 -73 -140 7 -181 142 -72 397 -71 528 2 80 45 80
149 0 183 -34 14 -41 13 -110 -11 -101 -34 -212 -34 -310 0 -83 30 -72 29
-115 7z"/>
<path d="M4619 2511 c-20 -21 -29 -39 -29 -62 0 -41 75 -236 102 -265 43 -48
125 -32 155 30 16 34 16 39 -1 93 -29 92 -81 199 -107 216 -37 27 -86 22 -120
-12z"/>
<path d="M4284 2211 c-30 -13 -54 -50 -54 -84 0 -16 17 -81 37 -145 32 -98 41
-117 67 -133 17 -11 43 -19 58 -19 34 0 85 43 93 79 8 36 -57 241 -88 276 -24
28 -79 40 -113 26z"/>
<path d="M4768 1881 l-33 -29 -3 -125 c-4 -143 6 -177 62 -204 42 -19 79 -12
112 24 23 25 24 32 24 165 l0 140 -29 29 c-40 40 -89 40 -133 0z"/>
<path d="M4343 1574 c-17 -9 -35 -23 -38 -32 -30 -73 -75 -222 -75 -248 0 -47
35 -84 87 -91 65 -9 92 25 139 171 37 115 37 118 21 152 -11 23 -30 40 -52 50
-42 17 -43 17 -82 -2z"/>
<path d="M3864 1391 c-12 -5 -31 -22 -44 -38 -29 -37 -23 -98 15 -130 62 -54
165 -9 165 71 0 66 -78 121 -136 97z"/>
<path d="M4709 1256 c-20 -12 -37 -43 -73 -133 -25 -65 -46 -131 -46 -146 0
-41 27 -75 69 -88 75 -22 114 21 175 189 33 92 33 114 -1 152 -33 37 -85 47
-124 26z"/>
</g>
</svg>
